<?xml version="1.0" encoding="UTF-8" standalone="no"?>
<svg width="200" height="200" viewBox="0 0 200 200" xmlns="http://www.w3.org/2000/svg">
  <!-- Axe Handle -->
  <rect x="97" y="20" width="6" height="150" rx="3" ry="3" fill="#8B4513" stroke="#000" stroke-width="1.5"/>
  
  <!-- Handle Bottom -->
  <ellipse cx="100" cy="170" rx="7" ry="3" fill="#8B4513" stroke="#000" stroke-width="1"/>
  
  <!-- Handle grip texture -->
  <rect x="97" y="30" width="6" height="3" rx="1.5" ry="1.5" fill="#A0522D"/>
  <rect x="97" y="40" width="6" height="3" rx="1.5" ry="1.5" fill="#A0522D"/>
  <rect x="97" y="50" width="6" height="3" rx="1.5" ry="1.5" fill="#A0522D"/>
  <rect x="97" y="60" width="6" height="3" rx="1.5" ry="1.5" fill="#A0522D"/>
  <rect x="97" y="70" width="6" height="3" rx="1.5" ry="1.5" fill="#A0522D"/>
  <rect x="97" y="80" width="6" height="3" rx="1.5" ry="1.5" fill="#A0522D"/>
  <rect x="97" y="90" width="6" height="3" rx="1.5" ry="1.5" fill="#A0522D"/>
  <rect x="97" y="100" width="6" height="3" rx="1.5" ry="1.5" fill="#A0522D"/>
  <rect x="97" y="110" width="6" height="3" rx="1.5" ry="1.5" fill="#A0522D"/>
  <rect x="97" y="120" width="6" height="3" rx="1.5" ry="1.5" fill="#A0522D"/>
  <rect x="97" y="130" width="6" height="3" rx="1.5" ry="1.5" fill="#A0522D"/>
  <rect x="97" y="140" width="6" height="3" rx="1.5" ry="1.5" fill="#A0522D"/>
  <rect x="97" y="150" width="6" height="3" rx="1.5" ry="1.5" fill="#A0522D"/>
  
  <!-- Axe Head - Outline -->
  <path d="M101 70 L140 50 C145 45, 150 55, 145 65 L120 80 Z" fill="#636363" stroke="#000" stroke-width="2"/>
  
  <!-- Axe Head - Blade -->
  <path d="M140 50 L145 47 L150 55 L145 65 Z" fill="#A9A9A9" stroke="#000" stroke-width="1.5"/>
  
  <!-- Axe Head - Edge -->
  <line x1="145" y1="47" x2="150" y2="55" stroke="#FFFFFF" stroke-width="1" stroke-opacity="0.7"/>
  
  <!-- Axe Head - Back -->
  <path d="M101 70 L90 65 C85 60, 85 52, 95 55 L101 60 Z" fill="#636363" stroke="#000" stroke-width="1.5"/>
  
  <!-- Metal texture on head -->
  <path d="M110 65 L130 55" stroke="#7D7D7D" stroke-width="1"/>
  <path d="M112 70 L125 63" stroke="#7D7D7D" stroke-width="1"/>
  
  <!-- Connection reinforcement -->
  <ellipse cx="101" cy="65" rx="4" ry="7" fill="#8B4513" stroke="#000" stroke-width="1"/>
  
  <!-- Rivets -->
  <circle cx="101" cy="61" r="1.5" fill="#404040" stroke="#000" stroke-width="0.5"/>
  <circle cx="101" cy="69" r="1.5" fill="#404040" stroke="#000" stroke-width="0.5"/>
  
  <!-- Highlight -->
  <path d="M120 55 L130 52" stroke="white" stroke-width="1" stroke-opacity="0.5"/>
</svg> 