<?xml version="1.0" encoding="UTF-8" standalone="no"?>
<svg width="200" height="200" viewBox="0 0 200 200" xmlns="http://www.w3.org/2000/svg">
  <!-- Pot Base -->
  <path d="M60 100 L60 160 C60 170, 140 170, 140 160 L140 100 Z" fill="#CD5C5C" stroke="#000" stroke-width="2"/>
  
  <!-- Pot Rim -->
  <path d="M55 100 C55 95, 145 95, 145 100 L140 100 C140 98, 60 98, 60 100 Z" fill="#A04040" stroke="#000" stroke-width="1.5"/>
  
  <!-- Soil -->
  <ellipse cx="100" cy="100" rx="40" ry="10" fill="#5D4037" stroke="#000" stroke-width="1"/>
  
  <!-- Drainage Hole (Bottom Center) -->
  <ellipse cx="100" cy="160" rx="10" ry="3" fill="#3E2723" stroke="#000" stroke-width="0.5"/>
  
  <!-- Pot Texture -->
  <path d="M70 110 C70 120, 70 150, 70 160" stroke="#B33B3B" stroke-width="1" fill="none"/>
  <path d="M90 110 C90 120, 90 150, 90 160" stroke="#B33B3B" stroke-width="1" fill="none"/>
  <path d="M110 110 C110 120, 110 150, 110 160" stroke="#B33B3B" stroke-width="1" fill="none"/>
  <path d="M130 110 C130 120, 130 150, 130 160" stroke="#B33B3B" stroke-width="1" fill="none"/>
  
  <!-- Pot Decorative Band -->
  <path d="M60 130 C60 135, 140 135, 140 130" fill="none" stroke="#A04040" stroke-width="3"/>
  
  <!-- Flower Stem -->
  <path d="M100 100 C95 90, 105 80, 100 40" fill="none" stroke="#4CAF50" stroke-width="2.5"/>
  
  <!-- Leaves -->
  <path d="M100 80 C110 85, 120 75, 125 70" fill="none" stroke="#4CAF50" stroke-width="2"/>
  <path d="M100 60 C90 65, 80 55, 75 50" fill="none" stroke="#4CAF50" stroke-width="2"/>
  
  <!-- Flower Petals -->
  <ellipse cx="95" cy="40" rx="10" ry="5" fill="#FF69B4" stroke="#000" stroke-width="0.5" transform="rotate(-30, 95, 40)"/>
  <ellipse cx="105" cy="40" rx="10" ry="5" fill="#FF69B4" stroke="#000" stroke-width="0.5" transform="rotate(30, 105, 40)"/>
  <ellipse cx="100" cy="35" rx="10" ry="5" fill="#FF69B4" stroke="#000" stroke-width="0.5" transform="rotate(0, 100, 35)"/>
  <ellipse cx="93" cy="45" rx="10" ry="5" fill="#FF69B4" stroke="#000" stroke-width="0.5" transform="rotate(-60, 93, 45)"/>
  <ellipse cx="107" cy="45" rx="10" ry="5" fill="#FF69B4" stroke="#000" stroke-width="0.5" transform="rotate(60, 107, 45)"/>
  
  <!-- Flower Center -->
  <circle cx="100" cy="40" r="5" fill="#FFEB3B" stroke="#000" stroke-width="0.5"/>
  
  <!-- Pot Highlights -->
  <path d="M65 110 L70 115" stroke="white" stroke-width="1" stroke-opacity="0.4"/>
  <path d="M75 110 L80 115" stroke="white" stroke-width="1" stroke-opacity="0.4"/>
  <path d="M135 110 L130 115" stroke="white" stroke-width="1" stroke-opacity="0.4"/>
</svg> 