<?xml version="1.0" encoding="UTF-8" standalone="no"?>
<svg width="200" height="200" viewBox="0 0 200 200" xmlns="http://www.w3.org/2000/svg">
  <!-- Rake Handle -->
  <rect x="96" y="20" width="8" height="150" rx="4" ry="4" fill="#A87D35" stroke="#000" stroke-width="1.5"/>
  
  <!-- Handle grip texture -->
  <rect x="96" y="30" width="8" height="4" rx="2" ry="2" fill="#8B5A2B"/>
  <rect x="96" y="45" width="8" height="4" rx="2" ry="2" fill="#8B5A2B"/>
  <rect x="96" y="60" width="8" height="4" rx="2" ry="2" fill="#8B5A2B"/>
  <rect x="96" y="75" width="8" height="4" rx="2" ry="2" fill="#8B5A2B"/>
  <rect x="96" y="90" width="8" height="4" rx="2" ry="2" fill="#8B5A2B"/>
  <rect x="96" y="105" width="8" height="4" rx="2" ry="2" fill="#8B5A2B"/>
  <rect x="96" y="120" width="8" height="4" rx="2" ry="2" fill="#8B5A2B"/>
  <rect x="96" y="135" width="8" height="4" rx="2" ry="2" fill="#8B5A2B"/>
  
  <!-- Rake Head Base -->
  <rect x="65" y="166" width="70" height="10" rx="2" ry="2" fill="#8B5A2B" stroke="#000" stroke-width="1.5"/>
  
  <!-- Rake Tines -->
  <rect x="70" y="170" width="2" height="20" rx="1" ry="1" fill="#7D7D7D" stroke="#000" stroke-width="0.5"/>
  <rect x="80" y="170" width="2" height="20" rx="1" ry="1" fill="#7D7D7D" stroke="#000" stroke-width="0.5"/>
  <rect x="90" y="170" width="2" height="20" rx="1" ry="1" fill="#7D7D7D" stroke="#000" stroke-width="0.5"/>
  <rect x="100" y="170" width="2" height="20" rx="1" ry="1" fill="#7D7D7D" stroke="#000" stroke-width="0.5"/>
  <rect x="110" y="170" width="2" height="20" rx="1" ry="1" fill="#7D7D7D" stroke="#000" stroke-width="0.5"/>
  <rect x="120" y="170" width="2" height="20" rx="1" ry="1" fill="#7D7D7D" stroke="#000" stroke-width="0.5"/>
  <rect x="130" y="170" width="2" height="20" rx="1" ry="1" fill="#7D7D7D" stroke="#000" stroke-width="0.5"/>
  
  <!-- Connection piece -->
  <path d="M96 155 L96 168 L104 168 L104 155 Z" fill="#8B5A2B" stroke="#000" stroke-width="1"/>
  
  <!-- Connection reinforcement -->
  <path d="M95 160 L70 171 M105 160 L130 171" stroke="#8B5A2B" stroke-width="3"/>
  
  <!-- Highlight on rake head -->
  <rect x="85" y="167" width="30" height="2" fill="white" fill-opacity="0.3"/>
</svg> 