<?xml version="1.0" encoding="UTF-8" standalone="no"?>
<svg width="200" height="200" viewBox="0 0 200 200" xmlns="http://www.w3.org/2000/svg">
  <!-- Shovel Handle -->
  <rect x="96" y="20" width="8" height="120" rx="4" ry="4" fill="#8B4513" stroke="#000" stroke-width="1.5"/>
  
  <!-- Handle Grip -->
  <ellipse cx="100" cy="20" rx="15" ry="5" fill="#8B4513" stroke="#000" stroke-width="1.5"/>
  <ellipse cx="100" cy="20" rx="13" ry="3" fill="#A0522D"/>
  
  <!-- Handle grip texture -->
  <rect x="96" y="30" width="8" height="4" rx="2" ry="2" fill="#A0522D"/>
  <rect x="96" y="45" width="8" height="4" rx="2" ry="2" fill="#A0522D"/>
  <rect x="96" y="60" width="8" height="4" rx="2" ry="2" fill="#A0522D"/>
  <rect x="96" y="75" width="8" height="4" rx="2" ry="2" fill="#A0522D"/>
  <rect x="96" y="90" width="8" height="4" rx="2" ry="2" fill="#A0522D"/>
  <rect x="96" y="105" width="8" height="4" rx="2" ry="2" fill="#A0522D"/>
  
  <!-- Connection to Blade -->
  <path d="M96 140 C 96 145, 93 150, 90 155 L110 155 C 107 150, 104 145, 104 140 Z" fill="#6D6D6D" stroke="#000" stroke-width="1.5"/>
  
  <!-- Shovel Blade -->
  <path d="M75 155 C 70 160, 68 175, 80 185 L120 185 C 132 175, 130 160, 125 155 Z" fill="#A9A9A9" stroke="#000" stroke-width="2"/>
  
  <!-- Blade Inner -->
  <path d="M80 160 C 78 165, 77 175, 85 180 L115 180 C 123 175, 122 165, 120 160 Z" fill="#8D8D8D" stroke="#000" stroke-width="1"/>
  
  <!-- Blade Edge -->
  <path d="M80 185 C 90 190, 110 190, 120 185" fill="none" stroke="#5C5C5C" stroke-width="2"/>
  
  <!-- Metal Rivets -->
  <circle cx="93" cy="155" r="2" fill="#5C5C5C" stroke="#000" stroke-width="0.5"/>
  <circle cx="107" cy="155" r="2" fill="#5C5C5C" stroke="#000" stroke-width="0.5"/>
  
  <!-- Highlights -->
  <path d="M85 170 C 90 175, 110 175, 115 170" fill="none" stroke="white" stroke-width="1" stroke-opacity="0.4"/>
  <ellipse cx="100" cy="170" rx="10" ry="5" fill="white" fill-opacity="0.1"/>
</svg> 